<?xml version="1.0" encoding="UTF-8"?> <svg xmlns="http://www.w3.org/2000/svg" width="23" height="22" viewBox="0 0 23 22" fill="none"> <path d="M12.9063 0.854134C14.142 -0.465086 16.3563 0.287194 16.5327 2.08618C16.6478 3.25978 17.7056 4.10928 18.8764 3.96818C20.671 3.75188 21.8837 5.75148 20.8624 7.24298C20.1962 8.21598 20.4605 9.54668 21.4481 10.1912C22.9618 11.1791 22.6055 13.4903 20.8645 13.9764C19.7286 14.2936 19.0758 15.4828 19.418 16.6113C19.9426 18.3411 18.184 19.8826 16.5378 19.1359C15.4639 18.6487 14.1994 19.1401 13.7361 20.2246C13.0261 21.8869 10.6881 21.9373 9.907 20.3071C9.3975 19.2436 8.113 18.8072 7.061 19.3402C5.4486 20.1572 3.62515 18.693 4.0747 16.9422C4.368 15.7999 3.66449 14.64 2.51604 14.3721C0.755678 13.9615 0.300028 11.6677 1.76981 10.6155C2.72868 9.92898 2.93541 8.58818 2.22782 7.64478C1.14323 6.19868 2.26859 4.14868 4.0709 4.28738C5.2467 4.37788 6.2669 3.48368 6.3312 2.30615C6.4299 0.501235 8.6097 -0.345796 9.9012 0.918934C10.7437 1.74403 12.1001 1.71478 12.9063 0.854134Z" fill="url(#paint0_linear_117_19)"></path> <path d="M12.9063 0.854134C14.142 -0.465086 16.3563 0.287194 16.5327 2.08618C16.6478 3.25978 17.7056 4.10928 18.8764 3.96818C20.671 3.75188 21.8837 5.75148 20.8624 7.24298C20.1962 8.21598 20.4605 9.54668 21.4481 10.1912C22.9618 11.1791 22.6055 13.4903 20.8645 13.9764C19.7286 14.2936 19.0758 15.4828 19.418 16.6113C19.9426 18.3411 18.184 19.8826 16.5378 19.1359C15.4639 18.6487 14.1994 19.1401 13.7361 20.2246C13.0261 21.8869 10.6881 21.9373 9.907 20.3071C9.3975 19.2436 8.113 18.8072 7.061 19.3402C5.4486 20.1572 3.62515 18.693 4.0747 16.9422C4.368 15.7999 3.66449 14.64 2.51604 14.3721C0.755678 13.9615 0.300028 11.6677 1.76981 10.6155C2.72868 9.92898 2.93541 8.58818 2.22782 7.64478C1.14323 6.19868 2.26859 4.14868 4.0709 4.28738C5.2467 4.37788 6.2669 3.48368 6.3312 2.30615C6.4299 0.501235 8.6097 -0.345796 9.9012 0.918934C10.7437 1.74403 12.1001 1.71478 12.9063 0.854134Z" fill="url(#paint1_linear_117_19)"></path> <path d="M12.9063 0.854134C14.142 -0.465086 16.3563 0.287194 16.5327 2.08618C16.6478 3.25978 17.7056 4.10928 18.8764 3.96818C20.671 3.75188 21.8837 5.75148 20.8624 7.24298C20.1962 8.21598 20.4605 9.54668 21.4481 10.1912C22.9618 11.1791 22.6055 13.4903 20.8645 13.9764C19.7286 14.2936 19.0758 15.4828 19.418 16.6113C19.9426 18.3411 18.184 19.8826 16.5378 19.1359C15.4639 18.6487 14.1994 19.1401 13.7361 20.2246C13.0261 21.8869 10.6881 21.9373 9.907 20.3071C9.3975 19.2436 8.113 18.8072 7.061 19.3402C5.4486 20.1572 3.62515 18.693 4.0747 16.9422C4.368 15.7999 3.66449 14.64 2.51604 14.3721C0.755678 13.9615 0.300028 11.6677 1.76981 10.6155C2.72868 9.92898 2.93541 8.58818 2.22782 7.64478C1.14323 6.19868 2.26859 4.14868 4.0709 4.28738C5.2467 4.37788 6.2669 3.48368 6.3312 2.30615C6.4299 0.501235 8.6097 -0.345796 9.9012 0.918934C10.7437 1.74403 12.1001 1.71478 12.9063 0.854134Z" fill="url(#paint2_linear_117_19)"></path> <path d="M7.2744 11.629L9.385 13.6138C9.7699 13.9758 10.3701 13.9758 10.7551 13.6138L15.6613 9" stroke="white" stroke-width="2" stroke-linecap="round"></path> <defs> <linearGradient id="paint0_linear_117_19" x1="15.7312" y1="23.3424" x2="3.80738" y2="-0.852466" gradientUnits="userSpaceOnUse"> <stop stop-color="#FFB800"></stop> <stop offset="1" stop-color="#FFE587"></stop> </linearGradient> <linearGradient id="paint1_linear_117_19" x1="19.1366" y1="25.6951" x2="1.82554" y2="1.41959" gradientUnits="userSpaceOnUse"> <stop stop-color="white"></stop> <stop offset="1" stop-color="#FF758E"></stop> </linearGradient> <linearGradient id="paint2_linear_117_19" x1="3.51827" y1="-0.873856" x2="19.5992" y2="21.1143" gradientUnits="userSpaceOnUse"> <stop stop-color="#FFF2AD"></stop> <stop offset="0.0001" stop-color="#FFD7B0"></stop> <stop offset="1" stop-color="#E2842A"></stop> </linearGradient> </defs> </svg> 