<?xml version="1.0" encoding="UTF-8"?> <svg xmlns="http://www.w3.org/2000/svg" width="230" height="59" viewBox="0 0 230 59" fill="none"> <path d="M215 0H15C6.71573 0 0 6.71573 0 15V44C0 52.2843 6.71573 59 15 59H215C223.284 59 230 52.2843 230 44V15C230 6.71573 223.284 0 215 0Z" fill="url(#paint0_linear_108_20)"></path> <path d="M215 0.5H15C6.99187 0.5 0.5 6.99187 0.5 15V44C0.5 52.0081 6.99187 58.5 15 58.5H215C223.008 58.5 229.5 52.0081 229.5 44V15C229.5 6.99187 223.008 0.5 215 0.5Z" stroke="url(#paint1_linear_108_20)"></path> <path d="M187.663 16L190.117 19.2579L193.804 17.5136L194.463 21.5387L198.538 21.7076L197.251 25.5779L200.781 27.6213L197.843 30.45L200.019 33.8998L196.102 35.039L196.426 39.1049L192.429 38.2936L190.826 42.0441L187.663 39.4681L184.501 42.0441L182.898 38.2936L178.901 39.1049L179.224 35.039L175.308 33.8998L177.484 30.45L174.546 27.6213L178.076 25.5779L176.788 21.7076L180.864 21.5387L181.522 17.5136L185.209 19.2579L187.663 16Z" fill="#119FFF"></path> <path d="M194.432 25L186.479 33.3797M182.185 27.7255L186.956 32.7532" stroke="white" stroke-width="2"></path> <path d="M26.4858 25.7727V22.9091H37.8636V25.7727H33.9261V36H30.4233V25.7727H26.4858ZM39.2523 36V34.0312L45.4398 25.7727H39.2779V22.9091H49.9654V24.8778L43.7779 33.1364H49.9398V36H39.2523ZM51.6992 36V22.9091H55.2532V28.0227H59.9577V22.9091H63.5117V36H59.9577V30.8864H55.2532V36H51.6992ZM72.9464 22.9091H76.5004V31.2955C76.5004 32.2926 76.2617 33.1555 75.7844 33.8842C75.3114 34.6087 74.6509 35.169 73.8029 35.5653C72.9549 35.9574 71.9705 36.1534 70.8498 36.1534C69.7205 36.1534 68.7319 35.9574 67.8839 35.5653C67.0359 35.169 66.3754 34.6087 65.9023 33.8842C65.4336 33.1555 65.1992 32.2926 65.1992 31.2955V22.9091H68.7532V30.9886C68.7532 31.3935 68.8427 31.7557 69.0217 32.0753C69.2006 32.3906 69.4478 32.6378 69.7631 32.8168C70.0827 32.9957 70.445 33.0852 70.8498 33.0852C71.2589 33.0852 71.6211 32.9957 71.9364 32.8168C72.2518 32.6378 72.4989 32.3906 72.6779 32.0753C72.8569 31.7557 72.9464 31.3935 72.9464 30.9886V22.9091ZM89.5162 22.9091V36H86.5502L81.8201 29.1222H81.7434V36H78.1895V22.9091H81.2065L85.8599 29.7614H85.9622V22.9091H89.5162ZM94.7512 22.9091V36H91.1973V22.9091H94.7512ZM103.492 27C103.458 26.5739 103.298 26.2415 103.013 26.0028C102.732 25.7642 102.303 25.6449 101.728 25.6449C101.362 25.6449 101.061 25.6896 100.827 25.7791C100.597 25.8643 100.426 25.9815 100.316 26.1307C100.205 26.2798 100.147 26.4503 100.143 26.642C100.134 26.7997 100.162 26.9425 100.226 27.0703C100.294 27.1939 100.401 27.3068 100.546 27.4091C100.691 27.5071 100.876 27.5966 101.102 27.6776C101.328 27.7585 101.596 27.831 101.907 27.8949L102.981 28.125C103.705 28.2784 104.325 28.4808 104.841 28.7322C105.357 28.9837 105.779 29.2798 106.107 29.6207C106.435 29.9574 106.676 30.3366 106.829 30.7585C106.987 31.1804 107.068 31.6406 107.072 32.1392C107.068 33 106.852 33.7287 106.426 34.3253C106 34.9219 105.391 35.3757 104.598 35.6868C103.81 35.9979 102.862 36.1534 101.754 36.1534C100.616 36.1534 99.623 35.9851 98.775 35.6484C97.9313 35.3118 97.275 34.794 96.8063 34.0952C96.3418 33.392 96.1074 32.4929 96.1032 31.3977H99.4782C99.4995 31.7983 99.5996 32.1349 99.7786 32.4077C99.9576 32.6804 100.209 32.8871 100.533 33.0277C100.861 33.1683 101.251 33.2386 101.703 33.2386C102.082 33.2386 102.399 33.1918 102.655 33.098C102.911 33.0043 103.105 32.8743 103.237 32.7081C103.369 32.5419 103.437 32.3523 103.441 32.1392C103.437 31.9389 103.371 31.7642 103.243 31.6151C103.119 31.4616 102.915 31.3253 102.629 31.206C102.344 31.0824 101.958 30.9673 101.472 30.8608L100.169 30.5795C99.0094 30.3281 98.0953 29.9084 97.4263 29.3203C96.7615 28.728 96.4313 27.9205 96.4355 26.8977C96.4313 26.0668 96.6529 25.3402 97.1003 24.718C97.552 24.0916 98.1763 23.6037 98.9732 23.2543C99.7743 22.9048 100.693 22.7301 101.728 22.7301C102.785 22.7301 103.699 22.907 104.47 23.2607C105.242 23.6143 105.836 24.1129 106.254 24.7564C106.676 25.3956 106.889 26.1435 106.893 27H103.492ZM108.424 36V22.9091H114.1C115.097 22.9091 115.934 23.0433 116.612 23.3118C117.294 23.5803 117.807 23.9595 118.153 24.4496C118.502 24.9396 118.677 25.517 118.677 26.1818C118.677 26.6634 118.57 27.1023 118.357 27.4986C118.148 27.8949 117.854 28.2273 117.475 28.4957C117.096 28.7599 116.653 28.9432 116.145 29.0455V29.1733C116.708 29.1946 117.219 29.3374 117.68 29.6016C118.14 29.8615 118.506 30.2216 118.779 30.6818C119.052 31.1378 119.188 31.6747 119.188 32.2926C119.188 33.0085 119.001 33.6456 118.626 34.2038C118.255 34.7621 117.726 35.201 117.04 35.5206C116.354 35.8402 115.536 36 114.586 36H108.424ZM111.978 33.1619H113.64C114.236 33.1619 114.684 33.0511 114.982 32.8295C115.28 32.6037 115.43 32.2713 115.43 31.8324C115.43 31.5256 115.359 31.2656 115.219 31.0526C115.078 30.8395 114.878 30.6776 114.618 30.5668C114.362 30.456 114.053 30.4006 113.691 30.4006H111.978V33.1619ZM111.978 28.2017H113.435C113.746 28.2017 114.021 28.1527 114.26 28.0547C114.498 27.9567 114.684 27.8161 114.816 27.6328C114.952 27.4453 115.02 27.2173 115.02 26.9489C115.02 26.544 114.876 26.2351 114.586 26.022C114.296 25.8047 113.93 25.696 113.486 25.696H111.978V28.2017ZM120.447 36V22.9091H129.882V25.7727H124.001V28.0227H129.396V30.8864H124.001V33.1364H129.856V36H120.447ZM131.645 36V22.9091H135.199V28.2017H135.377L139.315 22.9091H143.457L139.034 28.7386L143.559 36H139.315L136.375 31.0909L135.199 32.625V36H131.645ZM156.367 29.4545C156.367 30.9119 156.084 32.1413 155.517 33.1428C154.95 34.1399 154.186 34.8963 153.222 35.4119C152.259 35.9233 151.186 36.179 150.001 36.179C148.808 36.179 147.73 35.9212 146.767 35.4055C145.808 34.8857 145.045 34.1271 144.478 33.13C143.916 32.1286 143.634 30.9034 143.634 29.4545C143.634 27.9972 143.916 26.7699 144.478 25.7727C145.045 24.7713 145.808 24.0149 146.767 23.5036C147.73 22.9879 148.808 22.7301 150.001 22.7301C151.186 22.7301 152.259 22.9879 153.222 23.5036C154.186 24.0149 154.95 24.7713 155.517 25.7727C156.084 26.7699 156.367 27.9972 156.367 29.4545ZM152.711 29.4545C152.711 28.6705 152.607 28.0099 152.398 27.473C152.193 26.9318 151.889 26.5227 151.484 26.2457C151.083 25.9645 150.589 25.8239 150.001 25.8239C149.413 25.8239 148.916 25.9645 148.512 26.2457C148.111 26.5227 147.806 26.9318 147.597 27.473C147.393 28.0099 147.291 28.6705 147.291 29.4545C147.291 30.2386 147.393 30.9013 147.597 31.4425C147.806 31.9794 148.111 32.3885 148.512 32.6697C148.916 32.9467 149.413 33.0852 150.001 33.0852C150.589 33.0852 151.083 32.9467 151.484 32.6697C151.889 32.3885 152.193 31.9794 152.398 31.4425C152.607 30.9013 152.711 30.2386 152.711 29.4545ZM160.765 22.9091L163.45 32.1392H163.552L166.237 22.9091H170.251L165.93 36H161.072L156.751 22.9091H160.765Z" fill="white"></path> <defs> <linearGradient id="paint0_linear_108_20" x1="13.3205" y1="3.42029" x2="133.483" y2="144.58" gradientUnits="userSpaceOnUse"> <stop stop-color="white" stop-opacity="0.27"></stop> <stop offset="1" stop-color="white" stop-opacity="0.12"></stop> </linearGradient> <linearGradient id="paint1_linear_108_20" x1="230" y1="59" x2="97.6885" y2="-83.8213" gradientUnits="userSpaceOnUse"> <stop stop-color="white"></stop> <stop offset="1" stop-color="white" stop-opacity="0"></stop> </linearGradient> </defs> </svg> 